HIERARCHY
ROOT Pelvis
{
	OFFSET 0.000000 0.000000 0.000000
	CHANNELS 6 Xposition Yposition Zposition Zrotation Yrotation Xrotation 
	JOINT Left_hip
	{
		OFFSET 0.067986 -0.089946 -0.007639
		CHANNELS 3 Zrotation Yrotation Xrotation
		JOINT Left_knee
		{
			OFFSET 0.036308 -0.388288 -0.004016
			CHANNELS 3 Zrotation Yrotation Xrotation
			JOINT Left_ankle
			{
				OFFSET -0.012264 -0.413250 -0.042878
				CHANNELS 3 Zrotation Yrotation Xrotation
				JOINT Left_foot
				{
					OFFSET 0.024043 -0.058563 0.118570
					CHANNELS 3 Zrotation Yrotation Xrotation
					End Site
					{
						OFFSET 0.000000 0.000000 0.000000
					}
				}
			}
		}
	}
	JOINT Right_hip
	{
		OFFSET -0.065648 -0.089374 -0.003858
		CHANNELS 3 Zrotation Yrotation Xrotation
		JOINT Right_knee
		{
			OFFSET -0.042132 -0.395021 -0.006361
			CHANNELS 3 Zrotation Yrotation Xrotation
			JOINT Right_ankle
			{
				OFFSET 0.014805 -0.413264 -0.041054
				CHANNELS 3 Zrotation Yrotation Xrotation
				JOINT Right_foot
				{
					OFFSET -0.021758 -0.049013 0.121832
					CHANNELS 3 Zrotation Yrotation Xrotation
					End Site
					{
						OFFSET 0.000000 0.000000 0.000000
					}
				}
			}
		}
	}
	JOINT Spine1
	{
		OFFSET -0.002755 0.104406 -0.022277
		CHANNELS 3 Zrotation Yrotation Xrotation
		JOINT Spine2
		{
			OFFSET 0.004136 0.129393 -0.002186
			CHANNELS 3 Zrotation Yrotation Xrotation
			JOINT Spine3
			{
				OFFSET 0.001906 0.049304 0.025578
				CHANNELS 3 Zrotation Yrotation Xrotation
				JOINT Neck
				{
					OFFSET -0.004620 0.210958 -0.044063
					CHANNELS 3 Zrotation Yrotation Xrotation
					JOINT Head
					{
						OFFSET 0.003833 0.067393 0.052435
						CHANNELS 3 Zrotation Yrotation Xrotation
						End Site
						{
							OFFSET 0.000000 0.000000 0.000000
						}
					}
				}
				JOINT Left_collar
				{
					OFFSET 0.070771 0.116689 -0.037192
					CHANNELS 3 Zrotation Yrotation Xrotation
					JOINT Left_shoulder
					{
						OFFSET 0.080652 0.031596 -0.005617
						CHANNELS 3 Zrotation Yrotation Xrotation
						JOINT Left_elbow
						{
							OFFSET 0.262654 -0.015020 -0.027939
							CHANNELS 3 Zrotation Yrotation Xrotation
							JOINT Left_wrist
							{
								OFFSET 0.250438 0.010062 -0.000990
								CHANNELS 3 Zrotation Yrotation Xrotation
								JOINT Left_palm
								{
									OFFSET 0.081198 -0.010037 -0.013706
									CHANNELS 3 Zrotation Yrotation Xrotation
									End Site
									{
										OFFSET 0.000000 0.000000 0.000000
									}
								}
							}
						}
					}
				}
				JOINT Right_collar
				{
					OFFSET -0.072972 0.115556 -0.040762
					CHANNELS 3 Zrotation Yrotation Xrotation
					JOINT Right_shoulder
					{
						OFFSET -0.082917 0.031841 -0.006673
						CHANNELS 3 Zrotation Yrotation Xrotation
						JOINT Right_elbow
						{
							OFFSET -0.252882 -0.013790 -0.020410
							CHANNELS 3 Zrotation Yrotation Xrotation
							JOINT Right_wrist
							{
								OFFSET -0.255570 0.009163 -0.005138
								CHANNELS 3 Zrotation Yrotation Xrotation
								JOINT Right_palm
								{
									OFFSET -0.080804 -0.007282 -0.010415
									CHANNELS 3 Zrotation Yrotation Xrotation
									End Site
									{
										OFFSET 0.000000 0.000000 0.000000
									}
								}
							}
						}
					}
				}
			}
		}
	}
}
MOTION
Frames: 10
Frame Time: 0.100000
0.086564 -0.198215 1.124483 156.427935 61.237389 -41.009131 -0.561509 0.419636 15.027895 -5.281224 -6.809383 -2.253840 5.301151 9.231178 -6.260549 0.287989 6.803760 -6.487871 -7.472405 -3.905758 -3.672920 1.224237 -2.711080 53.905610 9.070504 -12.054598 -0.957810 -5.658516 9.078195 -6.482161 -0.871190 -0.996675 9.168514 4.741049 -2.152345 12.635527 2.125539 -1.877960 2.154531 -6.448366 18.199300 1.377355 -9.049622 11.045587 9.377008 -14.902554 -19.336438 2.686692 -59.407871 -28.825362 34.576722 -107.682181 -70.085740 131.106518 -10.137210 -11.270719 -37.728062 -3.544719 -2.129465 6.251649 24.385098 12.768106 6.472536 43.331991 11.070667 14.509206 -10.204000 23.340109 -8.806555 12.877155 -3.348839 2.686676 6.056901 6.606499 -6.996200 
0.052057 -0.200556 1.134417 150.376516 64.782148 -45.924144 -0.475050 0.240637 16.311873 -4.960963 -9.689833 -0.717825 4.733509 8.448430 -8.719372 -1.327541 6.012598 -5.886533 -5.799273 -2.509132 -7.700467 1.140250 -3.441566 39.801572 8.473574 -11.217263 -6.589781 -5.793475 8.718630 -1.943897 -0.371533 -2.032948 10.263594 4.354284 -2.185708 11.799175 2.330215 -2.351510 2.440198 -6.961584 18.193331 1.420963 -8.332562 10.311642 8.770707 -15.303466 -18.292018 2.850671 -59.176129 -28.572034 34.697142 -110.319910 -70.372358 134.080971 -8.762761 -11.960298 -37.562318 -2.236370 -1.785608 8.460001 24.680784 10.772879 6.933692 43.130077 7.294265 14.891917 -7.588630 23.913059 -4.589224 12.480098 -2.201530 1.971971 5.313506 6.494777 -5.711033 
0.019695 -0.202027 1.146117 144.440387 67.734562 -49.859902 0.045495 0.050453 16.838877 -4.992182 -11.965902 -0.209755 4.635264 7.388120 -10.608482 -2.926940 4.952745 -4.595175 -5.090356 -1.831522 -10.888625 3.066946 -1.715300 22.592746 11.257269 -6.428631 -4.610841 -8.108624 8.419159 0.946641 0.204197 -2.346997 10.466207 4.277041 -2.183933 11.278901 2.652427 -2.313013 2.412831 -7.884258 17.973901 1.252658 -7.453253 9.508681 7.900742 -15.104469 -17.142690 2.341787 -59.162228 -27.933974 34.667063 -112.863028 -71.117714 137.324272 -6.652045 -11.628039 -35.191613 -4.387285 -2.189077 8.368646 24.778078 8.941495 7.334924 42.785857 4.897647 14.454374 -6.138167 25.046164 -2.010542 11.159308 -1.075389 1.894466 8.200272 7.528879 -6.535399 
-0.017342 -0.203084 1.162174 135.033357 70.894485 -57.633167 1.310035 -0.532144 17.754571 -5.441608 -15.057165 0.960912 3.964890 6.637800 -13.224582 -3.265381 4.206702 -3.107942 -5.122886 0.197815 -10.701489 5.731829 3.291660 7.479057 13.163929 -0.547101 -4.247293 -8.290135 6.971086 4.354262 0.949153 -2.793628 9.961601 4.786707 -2.958746 11.559276 2.958949 -2.537806 2.309071 -7.875314 18.479362 1.584811 -7.513420 8.865925 6.762594 -15.113047 -16.077063 2.136533 -58.605389 -26.776405 34.636176 -117.372615 -72.294051 141.766927 -5.073395 -11.356243 -35.217583 -7.032262 -2.259464 7.556906 25.064647 7.460799 7.006506 42.075395 4.675774 13.362229 -7.073683 25.536931 -4.055410 9.025263 -0.561311 -0.886691 11.702787 8.496495 -8.044116 
-0.059900 -0.204401 1.184825 125.791536 74.165089 -66.778635 1.249395 -1.061933 19.608346 -5.457887 -17.876774 3.997949 4.277798 6.416848 -15.260566 -3.623336 4.470844 -3.164006 -5.365595 0.472721 -9.677807 5.574971 4.094536 8.685354 13.461299 -1.368644 -1.582452 -8.162968 7.116241 3.823863 1.437985 -3.086495 9.704826 4.978591 -2.814944 11.920755 2.914454 -2.580104 2.269845 -7.495524 18.040086 1.782152 -8.179328 9.322138 6.643032 -15.922328 -14.743217 2.638025 -56.597840 -25.481186 33.063172 -119.749422 -72.136791 144.042705 -4.398109 -11.310381 -35.003573 -7.529348 -2.492509 7.009110 25.569362 7.236134 6.634984 40.753028 4.586943 13.334402 -7.588319 27.655995 -5.120244 7.722362 -0.120814 -0.866258 12.370550 8.660933 -7.993962 
-0.103700 -0.215299 1.209652 115.930750 76.187728 -76.513651 2.091090 -1.600670 19.470753 -6.527569 -19.816270 10.225854 2.387690 5.551895 -13.774087 -1.493417 5.163060 -5.798156 -5.252302 -0.190327 -8.954796 6.416279 3.406793 14.616163 12.073261 -3.239104 -3.310464 -8.793973 7.568132 2.627093 2.019052 -3.109446 8.708564 5.260593 -2.338814 12.183141 2.934414 -2.387986 2.370755 -6.180657 18.038925 2.087918 -8.913972 9.849730 7.790810 -16.840668 -12.658526 2.910828 -55.550598 -23.023927 31.444375 -118.184097 -72.683695 143.088859 -4.536315 -10.113189 -33.213179 -7.854115 -2.689022 5.247718 25.823436 7.463445 6.000892 39.784260 6.001407 13.084001 -8.656954 30.332742 -6.050695 6.430395 -0.189363 -0.295260 12.405581 8.310483 -7.785648 
-0.146694 -0.228714 1.234282 100.365874 77.865176 -91.520431 3.781056 -2.783162 15.004940 -10.162975 -20.110180 21.932334 -2.166487 2.532843 -8.510075 2.108157 6.106661 -10.102406 -5.064101 -1.369210 -4.717214 6.946292 3.096832 13.838835 9.644306 -4.800835 -6.766305 -9.240801 7.517962 2.457823 2.446517 -2.308820 7.585237 5.167385 -2.787126 11.845462 2.720259 -2.485240 2.337847 -4.936813 17.590114 2.163242 -8.885390 9.553398 8.496282 -17.304441 -10.227231 3.266665 -53.652708 -20.020348 29.674783 -120.646851 -72.780356 145.177191 -3.659216 -9.211815 -33.404796 -8.623069 -2.625851 4.034215 25.645523 7.029916 4.633335 40.452613 7.243590 13.647202 -11.671330 38.399791 -8.101218 4.079682 0.388667 -2.426969 12.603526 8.025289 -7.031395 
-0.183737 -0.235799 1.257117 80.134943 77.854979 -111.946784 6.830126 -3.101586 6.129435 -14.998495 -15.565599 39.283531 -8.211612 -0.899759 0.080403 5.068823 7.829822 -15.837738 -4.838969 -3.464714 0.373917 8.100395 2.487410 12.077142 6.152150 -5.339572 -9.623202 -8.381699 6.210998 2.026272 3.489282 -0.839103 8.046494 5.022560 -3.301679 11.695120 2.680840 -2.185376 2.095896 -5.027280 16.218675 1.572126 -8.643713 9.194140 7.802792 -17.776322 -8.361649 3.466526 -51.768276 -17.300778 26.941396 -124.715585 -73.769401 149.150469 -2.998410 -9.062957 -32.277964 -9.256050 -2.330281 3.000107 24.679931 7.096069 3.824350 40.610976 8.135241 14.097402 -16.460805 51.212095 -9.916291 1.947665 1.797768 -4.894130 12.674721 7.589651 -5.607269 
-0.213305 -0.240889 1.271327 67.797375 77.360295 -124.887265 8.012512 -1.594815 -1.101131 -13.035483 -7.419343 50.979756 -8.805683 1.134923 2.541685 5.263567 9.935698 -17.726687 -4.576138 -4.750623 5.117938 8.289875 2.442065 9.892115 3.295217 -5.416425 -10.952837 -5.938171 3.924262 1.574019 4.355004 0.886967 9.689970 4.582986 -2.843902 11.002863 2.624858 -1.426871 2.143559 -4.528994 14.443719 1.862612 -8.734233 9.583878 7.001050 -18.895470 -6.028794 3.227847 -50.282417 -13.692902 23.463615 -120.178794 -76.138910 145.554371 -1.408404 -7.722319 -26.311603 -10.260540 -2.516880 0.233191 23.625136 7.632836 3.178045 39.858147 10.264300 14.537646 -22.289770 62.962917 -12.856522 -2.097150 2.946826 -5.459924 13.701471 7.727407 -5.902194 
-0.239634 -0.246229 1.278365 56.075748 77.071648 -135.849514 8.455940 0.803709 -4.414068 -8.085136 -1.882050 45.573179 -5.800546 4.766070 -1.668556 6.372461 12.154278 -14.507480 -5.050524 -5.918325 8.760357 7.586196 1.886334 6.297537 3.068777 -5.103500 -11.329129 -4.331270 1.485747 1.260530 4.404923 2.501389 10.423323 3.836833 -2.273236 10.055005 2.421497 -0.731096 2.033085 -3.650369 14.244703 2.359497 -9.989195 9.439987 5.769254 -20.133830 -3.292348 2.777912 -49.142448 -8.982717 19.268028 -91.634311 -79.332117 119.816240 -0.306397 -6.109477 -13.257962 -12.039327 -3.533460 -6.306939 22.792335 7.392715 2.376938 41.181468 12.486488 15.205522 -36.506085 73.275790 -23.496003 -5.965808 4.315387 -5.632846 16.043357 8.488478 -8.168346 
